<?xml version="1.0" encoding="utf-8"?>
<!-- Generator: Adobe Illustrator 28.2.0, SVG Export Plug-In . SVG Version: 6.00 Build 0)  -->
<svg version="1.1" id="Icon" xmlns="http://www.w3.org/2000/svg" xmlns:xlink="http://www.w3.org/1999/xlink" x="0px" y="0px"
	 viewBox="0 0 1024 1024" enable-background="new 0 0 1024 1024" xml:space="preserve">
<rect id="Background" fill="#2BB673" width="1024" height="1024"/>
<g id="Paintbrush">
	<rect x="89.7" y="117.7" fill="#FFFFFF" fill-opacity="0" width="843.7" height="789.4"/>
	<path fill="#FFFFFF" fill-opacity="0.85" d="M919.9,759.9c-20.5-16.8-49.5-5-76-25.3c-32.6-26.4-12.8-86.9-69.2-131.4
		c-60.9-48.3-141.8-31.9-196,37.5c-60.9,76-44.5,166.6,30,224.8c88.4,70,239.8,49.4,311.9-45C939.7,795.5,935,772.3,919.9,759.9z
		 M639.4,824.8c-51.1-42-64.1-104.1-21.7-155c35.2-43.4,88.4-53.3,124.8-22.7c41.4,33.9,28.5,86.7,65.6,123.2
		c18.1,18.1,41.6,16.6,48.6,23.3c4.2,4,4.7,11.4-2.2,19.5C798.5,873.5,698.6,874.2,639.4,824.8z M560.9,671.8
		c-27.7-1.9-52.6-14.3-85.8-47.4C355.9,505.2,161.8,225.8,149.9,208.6C137,189.8,157,170,175,183.2
		c18.3,13.7,293.6,204.2,416.1,325.3c31.8,31.5,47.5,60.2,47.7,89.2l52.8-13.7c-4.3-41.1-24.4-74.3-62.8-113.3
		C506.6,347.4,224.2,153.4,200.4,136.8c-64.7-45-142.7,32.4-97.2,97c16.7,24.1,211.7,306,334,428.2c39.4,39.4,72.7,58.9,114.5,62.9
		L560.9,671.8z M601.2,510.9l-13.7-43.2c-72.9,6.5-147.5,81.9-153.3,155.9l43.3,10.5C478.9,580.8,548.7,511.5,601.2,510.9z"/>
</g>
</svg>
