<?xml version="1.0" encoding="utf-8"?>
<!-- Generator: Adobe Illustrator 28.2.0, SVG Export Plug-In . SVG Version: 6.00 Build 0)  -->
<svg version="1.1" id="icon" xmlns="http://www.w3.org/2000/svg" xmlns:xlink="http://www.w3.org/1999/xlink" x="0px" y="0px"
	 viewBox="0 0 1024 1024" enable-background="new 0 0 1024 1024" xml:space="preserve">
<rect fill="#2BB673" width="1024" height="1024"/>
<g>
	<rect x="69" y="97.6" fill="#FFFFFF" fill-opacity="0" width="885.9" height="828.9"/>
	<path fill="#FFFFFF" fill-opacity="0.85" d="M941.6,835.5c-75.8,99.1-234.7,120.8-327.5,47.3c-78.2-61.1-95.4-156.2-31.5-236.1
		c57-72.9,141.9-90.1,205.8-39.4c59.2,46.7,38.4,110.2,72.6,137.9c27.8,21.3,58.3,9,79.8,26.6C956.6,784.9,961.6,809.3,941.6,835.5z
		 M872.2,827.8c7.3-8.5,6.7-16.3,2.3-20.5c-7.4-7-32-5.5-51-24.5c-38.9-38.4-25.4-93.7-68.9-129.4c-38.3-32.1-94.1-21.7-131.1,23.8
		c-44.6,53.5-30.9,118.6,22.8,162.7C708.4,891.8,813.3,891.1,872.2,827.8z M554.2,735.2c-43.8-4.3-78.8-24.7-120.2-66.1
		C305.7,540.7,100.9,244.7,83.3,219.5c-47.8-67.8,34.1-149.1,102-101.8c24.9,17.4,321.4,221.1,449.8,350.5
		c40.3,41,61.5,75.9,65.9,119l-55.4,14.4c-0.2-30.5-16.7-60.6-50.1-93.6C466.9,380.6,177.9,180.6,158.7,166.3
		c-18.9-13.8-39.9,6.9-26.3,26.7c12.5,18.1,216.2,311.5,341.4,436.7c34.9,34.7,61,47.7,90.1,49.7L554.2,735.2z M476.3,639.8
		l-45.5-11c6.1-77.7,84.5-156.9,161-163.7l14.4,45.3C551.1,511,477.8,583.8,476.3,639.8z"/>
</g>
</svg>
