<?xml version="1.0" encoding="utf-8"?>
<!-- Generator: Adobe Illustrator 28.2.0, SVG Export Plug-In . SVG Version: 6.00 Build 0)  -->
<!DOCTYPE svg
PUBLIC "-//W3C//DTD SVG 1.1//EN"
       "http://www.w3.org/Graphics/SVG/1.1/DTD/svg11.dtd">
<svg version="1.1" id="toolbar-icon" xmlns="http://www.w3.org/2000/svg" xmlns:xlink="http://www.w3.org/1999/xlink" x="0px" y="0px"
	 viewBox="0 0 72 72" enable-background="new 0 0 72 72">
<g>
	<path fill="#000000" fill-opacity="0.85" d="M49.5,15h-27c0.1-2,1.3-3.1,3.3-3.1h20.4C48.2,11.9,49.4,13,49.5,15z"/>
	<path fill="#000000" fill-opacity="0.85" d="M54,21.4c-0.8-0.1-1.6-0.2-2.5-0.2h-31c-0.9,0-1.7,0.1-2.5,0.2c0.2-2.4,1.8-3.7,4.4-3.7h27.2
		C52.2,17.7,53.7,19,54,21.4z"/>
	<path fill="#000000" fill-opacity="0.85" d="M58.5,31.3v6.3c0,0-0.1,0-0.1,0c-1.3,0-2.6,0.2-3.8,0.5v-6.6c0-2.1-1.1-3.1-3.1-3.1H20.6
		c-2,0-3.1,1.1-3.1,3.1v19l4.8-4.1c0.9-0.7,1.7-1.1,2.6-1.1c1,0,1.9,0.4,2.8,1.2l3.7,3.3l9.3-8.3c0.9-0.8,1.9-1.2,3.1-1.2
		c1.1,0,2.2,0.4,3,1.2l0.9,0.8c-2.3,2.5-3.6,5.8-3.6,9.4c0,3.1,1,5.9,2.7,8.3H20.5c-4.7,0-7-2.3-7-6.9V31.3c0-4.6,2.3-6.9,7-6.9h31
		C56.1,24.5,58.5,26.8,58.5,31.3z"/>
	<path fill="#000000" fill-opacity="0.85" d="M34.6,37.2c0,2.7-2.2,4.9-4.9,4.9c-2.7,0-4.9-2.2-4.9-4.9c0-2.6,2.2-4.9,4.9-4.9
		C32.4,32.3,34.6,34.5,34.6,37.2z"/>
	<path fill="#000000" fill-opacity="0.85" d="M69.4,51.8c0,6-5.1,11-11,11c-6,0-11-4.9-11-11c0-6,5-11,11-11S69.4,45.8,69.4,51.8z M56.8,46.4v5.3
		l0.1,2.6l-1-1l-2.2-2.3c-0.3-0.3-0.7-0.5-1.1-0.5c-0.8,0-1.5,0.6-1.4,1.4c0,0.4,0.2,0.8,0.5,1l5.5,5.1c0.4,0.4,0.7,0.5,1.1,0.5
		c0.4,0,0.7-0.2,1.1-0.5L65,53c0.3-0.3,0.5-0.6,0.5-1c0-0.8-0.6-1.4-1.4-1.4c-0.4,0-0.8,0.2-1.1,0.5l-2.2,2.3l-1,1l0.1-2.6v-5.3
		c0-0.8-0.7-1.5-1.6-1.5C57.5,44.9,56.8,45.6,56.8,46.4z"/>
</g>
</svg>
