<?xml version="1.0" encoding="utf-8"?>
<!-- Generator: Adobe Illustrator 28.2.0, SVG Export Plug-In . SVG Version: 6.00 Build 0)  -->
<svg version="1.1" id="toolbar-icon" xmlns="http://www.w3.org/2000/svg" xmlns:xlink="http://www.w3.org/1999/xlink" x="0px" y="0px"
	 viewBox="0 0 72 72" enable-background="new 0 0 72 72" xml:space="preserve">
<g>
	<defs>
		<rect id="SVGID_1_" width="72" height="72"/>
	</defs>
	<clipPath id="SVGID_00000078763270308434978870000000005168573832821669_">
		<use xlink:href="#SVGID_1_"  overflow="visible"/>
	</clipPath>
	<g clip-path="url(#SVGID_00000078763270308434978870000000005168573832821669_)">
		<defs>
			<rect id="SVGID_00000161606779251340212320000008332510617601558153_" width="72" height="72"/>
		</defs>
		<clipPath id="SVGID_00000080910200145169817410000014740420560393238681_">
			<use xlink:href="#SVGID_00000161606779251340212320000008332510617601558153_"  overflow="visible"/>
		</clipPath>
	</g>
	<path opacity="0.8471" clip-path="url(#SVGID_00000078763270308434978870000000005168573832821669_)" d="M50.5,13.3H21.5
		c0.1-2.1,1.3-3.3,3.6-3.3h22C49.2,10,50.5,11.2,50.5,13.3z"/>
	<path opacity="0.8471" clip-path="url(#SVGID_00000078763270308434978870000000005168573832821669_)" d="M55.4,20.3
		c-0.8-0.2-1.7-0.2-2.7-0.2H19.3c-1,0-1.9,0.1-2.7,0.2c0.3-2.6,1.9-4,4.7-4h29.3C53.4,16.3,55.1,17.7,55.4,20.3z"/>
	<path opacity="0.8471" clip-path="url(#SVGID_00000078763270308434978870000000005168573832821669_)" d="M60.2,31v6.7
		c0,0-0.1,0-0.2,0c-1.4,0-2.8,0.2-4.1,0.6v-7.1c0-2.2-1.2-3.4-3.3-3.4H19.4c-2.1,0-3.3,1.1-3.3,3.4v20.5l5.2-4.4
		c0.9-0.8,1.9-1.2,2.9-1.2c1,0,2.1,0.4,3,1.3l4,3.6l10-8.9c1-0.9,2.1-1.3,3.3-1.3c1.1,0,2.4,0.4,3.3,1.3l0.9,0.9
		c-2.4,2.7-3.9,6.3-3.9,10.1c0,3.3,1.1,6.4,2.9,8.9H19.3c-5,0-7.5-2.4-7.5-7.4V31c0-4.9,2.5-7.4,7.5-7.4h33.3
		C57.7,23.6,60.2,26.1,60.2,31z"/>
	<path opacity="0.8471" clip-path="url(#SVGID_00000078763270308434978870000000005168573832821669_)" d="M34.5,37.3
		c0,2.9-2.4,5.3-5.3,5.3c-2.9,0-5.3-2.4-5.3-5.3c0-2.9,2.4-5.2,5.3-5.2C32.1,32,34.5,34.4,34.5,37.3z"/>
	<path opacity="0.8471" clip-path="url(#SVGID_00000078763270308434978870000000005168573832821669_)" d="M58.4,47.2V53l0.1,2.8
		l-1.1-1.1L55,52.2c-0.3-0.3-0.7-0.5-1.1-0.5c-0.9,0-1.6,0.6-1.5,1.5c0,0.4,0.2,0.8,0.5,1.1l6,5.5c0.4,0.4,0.8,0.6,1.2,0.6
		c0.4,0,0.8-0.2,1.2-0.6l6-5.5c0.4-0.3,0.5-0.7,0.5-1.1c0-0.9-0.7-1.6-1.5-1.5c-0.4,0-0.8,0.2-1.1,0.5l-2.4,2.4l-1.1,1.1l0.1-2.8
		v-5.7c0-0.9-0.8-1.6-1.7-1.6C59.2,45.6,58.4,46.3,58.4,47.2z M71.9,53c0,6.5-5.5,11.9-11.9,11.9c-6.5,0-11.9-5.3-11.9-11.9
		c0-6.5,5.4-11.9,11.9-11.9C66.5,41.2,71.9,46.5,71.9,53z"/>
</g>
</svg>
