<?xml version="1.0" encoding="utf-8"?>
<!-- Generator: Adobe Illustrator 28.2.0, SVG Export Plug-In . SVG Version: 6.00 Build 0)  -->
<svg version="1.1" id="Layer_1" xmlns="http://www.w3.org/2000/svg" xmlns:xlink="http://www.w3.org/1999/xlink" x="0px" y="0px"
	 viewBox="0 0 1024 1024" style="enable-background:new 0 0 1024 1024;" xml:space="preserve">
<style type="text/css">
	.st0{filter:url(#filter-vo2n-y2hyv-3);}
	.st1{fill-rule:evenodd;clip-rule:evenodd;}
	.st2{fill-rule:evenodd;clip-rule:evenodd;fill:#FFFFFF;}
	.st3{filter:url(#Adobe_OpacityMaskFilter);}
	.st4{mask:url(#mask-vo2n-y2hyv-2_00000026144082003145660790000011488690473711127215_);}
	.st5{fill:#2BB673;}
	.st6{fill:#FFFFFF;fill-opacity:0;}
	.st7{fill:#FFFFFF;fill-opacity:0.85;}
</style>
<filter  filterUnits="objectBoundingBox" height="104.9%" id="filter-vo2n-y2hyv-3" width="104.9%" x="-2.4%" y="-1.2%">
	<feOffset  dx="0" dy="10" in="SourceAlpha" result="shadowOffsetOuter1"></feOffset>
	<feGaussianBlur  in="shadowOffsetOuter1" result="shadowBlurOuter1" stdDeviation="5"></feGaussianBlur>
	<feColorMatrix  in="shadowBlurOuter1" type="matrix" values="0 0 0 0 0   0 0 0 0 0   0 0 0 0 0  0 0 0 0.3 0"></feColorMatrix>
</filter>
<g id="Template---Icons---App">
	<g id="App-Icons---_x40_2x" transform="translate(0, -590)">
		<g id="_x35_12x512_x40_2x" transform="translate(0, 590)">
			<g id="Artwork" transform="translate(100, 100)">
				<g id="Mask">
					<g class="st0">
						<path id="path-vo2n-y2hyv-1_00000079453328075332755400000009954645367957337791_" class="st1" d="M824,256.6
							c0-9.8,0-19.6-0.1-29.3c0-8.2-0.1-16.5-0.4-24.7c-0.5-18-1.5-36.1-4.7-53.8c-3.2-18-8.5-34.8-16.9-51.1
							c-8.2-16.1-18.9-30.8-31.7-43.6c-12.8-12.8-27.5-23.5-43.6-31.6c-16.4-8.3-33.2-13.6-51.2-16.9c-17.8-3.2-35.9-4.2-53.8-4.7
							c-8.2-0.2-16.5-0.3-24.7-0.4c-9.8-0.1-19.6-0.1-29.4-0.1L454,0h-85L257.4,0.4c-9.8,0-19.6,0-29.4,0.1
							c-8.3,0.1-16.5,0.1-24.8,0.4c-18,0.5-36.1,1.5-53.9,4.7c-18.1,3.2-34.9,8.5-51.3,16.8c-16.1,8.2-30.9,18.9-43.7,31.6
							C41.5,66.8,30.8,81.5,22.6,97.6C14.2,114,8.9,130.8,5.7,148.8c-3.2,17.7-4.3,35.8-4.7,53.8c-0.2,8.2-0.3,16.5-0.4,24.7
							C0.5,237.1,0,249.2,0,259v110.1V455l0.5,112.4c0,9.8,0,19.6,0.1,29.4c0,8.3,0.1,16.5,0.4,24.8c0.5,18,1.5,36.1,4.7,53.9
							c3.2,18,8.5,34.8,16.9,51.2c8.2,16.1,18.9,30.8,31.7,43.6C67.1,783,81.8,793.8,98,802c16.4,8.3,33.2,13.6,51.3,16.9
							c17.8,3.2,35.9,4.3,53.9,4.7c8.3,0.2,16.5,0.3,24.8,0.4c9.8,0.1,19.6,0.1,29.4,0.1H370h85.2h112.4c9.8,0,19.6,0,29.4-0.1
							c8.2,0,16.5-0.1,24.7-0.4c18-0.5,36.1-1.5,53.8-4.7c18-3.2,34.8-8.5,51.2-16.9c16.1-8.2,30.8-18.9,43.6-31.7
							c12.8-12.8,23.5-27.5,31.7-43.6c8.3-16.4,13.6-33.2,16.9-51.2c3.2-17.8,4.2-35.9,4.7-53.9c0.2-8.2,0.3-16.5,0.4-24.8
							c0.1-9.8,0.1-19.6,0.1-29.4c0,0,0-110.4,0-112.4v-86C824,367.5,824,256.6,824,256.6"/>
					</g>
					<g>
						<path id="path-vo2n-y2hyv-1_00000078736170907412062390000012776947011059135164_" class="st2" d="M824,256.6
							c0-9.8,0-19.6-0.1-29.3c0-8.2-0.1-16.5-0.4-24.7c-0.5-18-1.5-36.1-4.7-53.8c-3.2-18-8.5-34.8-16.9-51.1
							c-8.2-16.1-18.9-30.8-31.7-43.6c-12.8-12.8-27.5-23.5-43.6-31.6c-16.4-8.3-33.2-13.6-51.2-16.9c-17.8-3.2-35.9-4.2-53.8-4.7
							c-8.2-0.2-16.5-0.3-24.7-0.4c-9.8-0.1-19.6-0.1-29.4-0.1L454,0h-85L257.4,0.4c-9.8,0-19.6,0-29.4,0.1
							c-8.3,0.1-16.5,0.1-24.8,0.4c-18,0.5-36.1,1.5-53.9,4.7c-18.1,3.2-34.9,8.5-51.3,16.8c-16.1,8.2-30.9,18.9-43.7,31.6
							C41.5,66.8,30.8,81.5,22.6,97.6C14.2,114,8.9,130.8,5.7,148.8c-3.2,17.7-4.3,35.8-4.7,53.8c-0.2,8.2-0.3,16.5-0.4,24.7
							C0.5,237.1,0,249.2,0,259v110.1V455l0.5,112.4c0,9.8,0,19.6,0.1,29.4c0,8.3,0.1,16.5,0.4,24.8c0.5,18,1.5,36.1,4.7,53.9
							c3.2,18,8.5,34.8,16.9,51.2c8.2,16.1,18.9,30.8,31.7,43.6C67.1,783,81.8,793.8,98,802c16.4,8.3,33.2,13.6,51.3,16.9
							c17.8,3.2,35.9,4.3,53.9,4.7c8.3,0.2,16.5,0.3,24.8,0.4c9.8,0.1,19.6,0.1,29.4,0.1H370h85.2h112.4c9.8,0,19.6,0,29.4-0.1
							c8.2,0,16.5-0.1,24.7-0.4c18-0.5,36.1-1.5,53.8-4.7c18-3.2,34.8-8.5,51.2-16.9c16.1-8.2,30.8-18.9,43.6-31.7
							c12.8-12.8,23.5-27.5,31.7-43.6c8.3-16.4,13.6-33.2,16.9-51.2c3.2-17.8,4.2-35.9,4.7-53.9c0.2-8.2,0.3-16.5,0.4-24.8
							c0.1-9.8,0.1-19.6,0.1-29.4c0,0,0-110.4,0-112.4v-86C824,367.5,824,256.6,824,256.6"/>
					</g>
				</g>
				<defs>
					<filter id="Adobe_OpacityMaskFilter" filterUnits="userSpaceOnUse" x="0" y="0" width="824" height="824">
						<feColorMatrix  type="matrix" values="1 0 0 0 0  0 1 0 0 0  0 0 1 0 0  0 0 0 1 0"/>
					</filter>
				</defs>
				
					<mask maskUnits="userSpaceOnUse" x="0" y="0" width="824" height="824" id="mask-vo2n-y2hyv-2_00000026144082003145660790000011488690473711127215_">
					<g class="st3">
						<path id="path-vo2n-y2hyv-1_00000010283959677081151250000012945550784055003325_" class="st2" d="M824,256.6
							c0-9.8,0-19.6-0.1-29.3c0-8.2-0.1-16.5-0.4-24.7c-0.5-18-1.5-36.1-4.7-53.8c-3.2-18-8.5-34.8-16.9-51.1
							c-8.2-16.1-18.9-30.8-31.7-43.6c-12.8-12.8-27.5-23.5-43.6-31.6c-16.4-8.3-33.2-13.6-51.2-16.9c-17.8-3.2-35.9-4.2-53.8-4.7
							c-8.2-0.2-16.5-0.3-24.7-0.4c-9.8-0.1-19.6-0.1-29.4-0.1L454,0h-85L257.4,0.4c-9.8,0-19.6,0-29.4,0.1
							c-8.3,0.1-16.5,0.1-24.8,0.4c-18,0.5-36.1,1.5-53.9,4.7c-18.1,3.2-34.9,8.5-51.3,16.8c-16.1,8.2-30.9,18.9-43.7,31.6
							C41.5,66.8,30.8,81.5,22.6,97.6C14.2,114,8.9,130.8,5.7,148.8c-3.2,17.7-4.3,35.8-4.7,53.8c-0.2,8.2-0.3,16.5-0.4,24.7
							C0.5,237.1,0,249.2,0,259v110.1V455l0.5,112.4c0,9.8,0,19.6,0.1,29.4c0,8.3,0.1,16.5,0.4,24.8c0.5,18,1.5,36.1,4.7,53.9
							c3.2,18,8.5,34.8,16.9,51.2c8.2,16.1,18.9,30.8,31.7,43.6C67.1,783,81.8,793.8,98,802c16.4,8.3,33.2,13.6,51.3,16.9
							c17.8,3.2,35.9,4.3,53.9,4.7c8.3,0.2,16.5,0.3,24.8,0.4c9.8,0.1,19.6,0.1,29.4,0.1H370h85.2h112.4c9.8,0,19.6,0,29.4-0.1
							c8.2,0,16.5-0.1,24.7-0.4c18-0.5,36.1-1.5,53.8-4.7c18-3.2,34.8-8.5,51.2-16.9c16.1-8.2,30.8-18.9,43.6-31.7
							c12.8-12.8,23.5-27.5,31.7-43.6c8.3-16.4,13.6-33.2,16.9-51.2c3.2-17.8,4.2-35.9,4.7-53.9c0.2-8.2,0.3-16.5,0.4-24.8
							c0.1-9.8,0.1-19.6,0.1-29.4c0,0,0-110.4,0-112.4v-86C824,367.5,824,256.6,824,256.6"/>
					</g>
				</mask>
				<g id="Icon-Center-Image-Artwork" class="st4">
					<g id="icon">
						<rect id="Rectangle" class="st5" width="824" height="824"/>
						<g id="Group" transform="translate(55, 78)">
							<rect id="Rectangle_00000085951044857179333410000007896553498706751619_" class="st6" width="713" height="667"/>
							<path id="Shape" class="st7" d="M702.3,593.8c-61,79.7-188.9,97.2-263.6,38.1c-62.9-49.2-76.8-125.7-25.4-190
								c45.9-58.7,114.2-72.5,165.6-31.7c47.6,37.6,30.9,88.7,58.4,111c22.4,17.1,46.9,7.2,64.2,21.4
								C714.4,553.1,718.4,572.7,702.3,593.8z M646.4,587.6c5.9-6.8,5.4-13.1,1.9-16.5c-6-5.6-25.8-4.4-41-19.7
								c-31.3-30.9-20.4-75.4-55.5-104.1c-30.8-25.8-75.7-17.5-105.5,19.2c-35.9,43.1-24.9,95.4,18.4,130.9
								C514.6,639.1,599,638.5,646.4,587.6z M390.5,513.1c-35.3-3.5-63.4-19.9-96.7-53.2C190.5,356.6,25.7,118.4,11.5,98.1
								C-27,43.5,39-21.9,93.6,16.2c20,14,258.7,177.9,362,282c32.4,33,49.5,61.1,53,95.8l-44.6,11.6c-0.2-24.5-13.4-48.8-40.3-75.3
								C320.2,227.7,87.6,66.8,72.2,55.3C57,44.2,40.1,60.8,51,76.8c10.1,14.6,174,250.7,274.8,351.4c28.1,27.9,49.1,38.4,72.5,40
								L390.5,513.1z M327.8,436.3l-36.6-8.9c4.9-62.5,68-126.3,129.6-131.7l11.6,36.5C388,332.7,329,391.2,327.8,436.3z"/>
						</g>
					</g>
				</g>
			</g>
		</g>
	</g>
</g>
</svg>
