<?xml version="1.0" encoding="UTF-8"?>
<svg width="1024px" height="1024px" viewBox="0 0 1024 1024" version="1.1" xmlns="http://www.w3.org/2000/svg" xmlns:xlink="http://www.w3.org/1999/xlink">
    <defs>
        <path d="M824,256.627066 C824,246.845101 824,237.062137 823.943901,227.279173 C823.894902,219.038203 823.799902,210.799233 823.575904,202.562263 C823.091908,184.609328 822.032915,166.502394 818.839939,148.749458 C815.601963,130.740524 810.314002,113.979585 801.981064,97.6166446 C793.789124,81.5337032 783.088204,66.8167567 770.320298,54.0578032 C757.555393,41.2988496 742.834502,30.6048886 726.745621,22.4179184 C710.365742,14.0829487 693.586866,8.79696797 675.558,5.55997976 C657.803131,2.37199136 639.691265,1.31499521 621.738398,0.829996978 C613.495459,0.60699779 605.25252,0.512998132 597.007581,0.461998318 C587.219653,0.401998536 577.431726,0.406998518 567.643798,0.406998518 L453.99664,0 L368.997269,0 L257.361095,0.406998518 C247.554168,0.406998518 237.74724,0.401998536 227.940313,0.461998318 C219.678374,0.512998132 211.420435,0.60699779 203.161496,0.829996978 C185.166629,1.31499521 167.013764,2.37299136 149.216896,5.56497974 C131.164029,8.80096796 114.360154,14.0849487 97.9582749,22.4139184 C81.8353943,30.6018886 67.0825035,41.2968496 54.2905981,54.0578032 C41.5006928,66.8157567 30.7797722,81.5297032 22.5728329,97.6096446 C14.2168948,113.980585 8.91893398,130.751524 5.67295801,148.770458 C2.47698167,166.516394 1.4179895,184.617328 0.930993109,202.562263 C0.708994752,210.800233 0.612995463,219.039203 0.562995833,227.279173 C0.502996277,237.063137 0,249.216093 0,258.999057 L0,369.088656 L0,454.998343 L0.50799624,567.426934 C0.50799624,577.222898 0.503996269,587.018863 0.562995833,596.814827 C0.612995463,605.066797 0.708994752,613.316767 0.931993101,621.565737 C1.4179895,639.541672 2.47898165,657.674606 5.67795797,675.451541 C8.92293395,693.484475 14.2198947,710.269414 22.5688329,726.653354 C30.7767722,742.759296 41.4996928,757.495242 54.2905981,770.272196 C67.0815035,783.049149 81.8303943,793.75711 97.950275,801.95608 C114.362153,810.30205 131.174029,815.595031 149.237895,818.836019 C167.026764,822.029007 185.173629,823.088003 203.161496,823.573002 C211.420435,823.796001 219.679374,823.891 227.941313,823.941 C237.74824,824 247.554168,824 257.361095,824 L370.006261,824 L455.216631,824 L567.643798,824 C577.431726,824 587.219653,824 597.007581,823.941 C605.25252,823.891 613.495459,823.796001 621.738398,823.573002 C639.698265,823.087003 657.816131,822.027007 675.578999,818.832019 C693.596866,815.591031 710.367742,810.30005 726.738621,801.95908 C742.830502,793.76111 757.554393,783.051149 770.320298,770.272196 C783.086204,757.497242 793.786124,742.763296 801.978064,726.660354 C810.316002,710.268414 815.603963,693.475475 818.843939,675.430541 C822.033915,657.660606 823.091908,639.534672 823.576904,621.565737 C823.799902,613.315767 823.894902,605.065797 823.943901,596.814827 C824,587.018863 824,577.222898 824,567.426934 C824,567.426934 824,456.983336 824,454.998343 L824,368.998657 C824,367.532662 824,256.627066 824,256.627066" id="path-1"></path>
        <filter x="-2.4%" y="-1.2%" width="104.9%" height="104.9%" filterUnits="objectBoundingBox" id="filter-3">
            <feOffset dx="0" dy="10" in="SourceAlpha" result="shadowOffsetOuter1"></feOffset>
            <feGaussianBlur stdDeviation="5" in="shadowOffsetOuter1" result="shadowBlurOuter1"></feGaussianBlur>
            <feColorMatrix values="0 0 0 0 0   0 0 0 0 0   0 0 0 0 0  0 0 0 0.3 0" type="matrix" in="shadowBlurOuter1"></feColorMatrix>
        </filter>
    </defs>
    <g id="Page-1" stroke="none" stroke-width="1" fill="none" fill-rule="evenodd">
        <g id="Artwork" transform="translate(100, 100)">
            <mask id="mask-2" fill="white">
                <use xlink:href="#path-1"></use>
            </mask>
            <g id="Mask">
                <use fill="black" fill-opacity="1" filter="url(#filter-3)" xlink:href="#path-1"></use>
                <use fill="#FFFFFF" fill-rule="evenodd" xlink:href="#path-1"></use>
            </g>
            <g id="Icon-Center-Image-Artwork" mask="url(#mask-2)" fill-rule="nonzero">
                <g id="icon">
                    <rect id="Background" fill="#2BB673" x="0" y="0" width="824" height="824"></rect>
                    <g id="Paintbrush" transform="translate(72, 94)" fill="#FFFFFF">
                        <rect id="Rectangle" fill-opacity="0" x="0.0754432896" y="0" width="678.924557" height="635"></rect>
                        <path d="M668.136563,516.591082 C651.640234,503.077021 628.303962,512.56904 606.979438,496.239549 C580.746251,475.003167 596.679291,426.336458 551.294267,390.540284 C502.288097,351.687357 437.187947,364.879655 393.57326,420.705599 C344.56709,481.840638 357.764154,554.720041 417.714231,601.53661 C488.849623,657.845199 610.681054,641.274386 668.699853,565.338232 C684.069604,545.228021 680.287518,526.565746 668.136563,516.591082 Z M442.41849,568.797188 C401.298371,535.012034 390.837284,485.058272 424.956522,444.113884 C453.281927,409.202559 496.091914,401.238916 525.382959,425.853813 C558.697498,453.123258 548.31688,495.596022 578.171214,524.956929 C592.736266,539.516722 611.646693,538.310109 617.279586,543.699645 C620.659322,546.917279 621.061671,552.869901 615.509248,559.385609 C570.446103,607.971877 490.056672,608.534963 442.41849,568.797188 Z M379.249618,445.722701 C356.959455,444.194325 336.92245,434.219661 310.206443,407.593742 C214.28632,311.708259 58.0942421,86.9565493 48.5183238,73.1207246 C38.1377066,57.9978465 54.2316868,42.0705599 68.716269,52.688751 C83.442261,63.7091462 304.975899,216.948949 403.551528,314.362807 C429.140957,339.701672 441.774731,362.788194 441.935671,386.116037 L484.423779,375.095642 C480.963573,342.034457 464.789123,315.328097 433.888681,283.956169 C335.554462,184.772612 108.30746,28.7173803 89.155624,15.3642007 C37.0915979,-20.8341779 -25.6749251,41.4270332 10.93888,93.3918166 C24.3773535,112.778059 181.293661,339.54079 279.70835,437.839498 C311.413491,469.53319 338.209968,485.219154 371.846387,488.436787 L379.249618,445.722701 Z M411.678988,316.293387 L400.654612,281.542944 C341.992054,286.771599 281.961507,347.423993 277.294253,406.950215 L312.13772,415.396504 C313.264299,372.521535 369.43229,316.776032 411.678988,316.293387 Z" id="Shape" fill-opacity="0.85"></path>
                    </g>
                </g>
            </g>
        </g>
    </g>
</svg>